<svg xmlns="http://www.w3.org/2000/svg" version="1.1" xmlns:xlink="http://www.w3.org/1999/xlink" xmlns:svgjs="http://svgjs.com/svgjs" width="71" height="42"><svg width="71" height="42" viewBox="0 0 71 42" fill="none" xmlns="http://www.w3.org/2000/svg">
<path d="M19.706 4.756H22.01L23.468 8.986L24.944 4.756H27.23L25.034 10.57L26.654 14.638L30.272 4.72H32.972L27.86 17.5H25.718L23.468 12.136L21.236 17.5H19.094L14 4.72H16.664L20.3 14.638L21.884 10.57L19.706 4.756ZM43.6952 15.322V17.5H34.8212V4.72H43.5332V6.898H37.3052V9.976H42.6872V11.992H37.3052V15.322H43.6952ZM56.4678 14.206C56.4678 14.926 56.2818 15.532 55.9098 16.024C55.5378 16.504 55.0338 16.87 54.3978 17.122C53.7738 17.374 53.0898 17.5 52.3458 17.5H46.1718V4.72H53.0118C53.6118 4.72 54.1278 4.882 54.5598 5.206C55.0038 5.518 55.3398 5.926 55.5678 6.43C55.8078 6.922 55.9278 7.438 55.9278 7.978C55.9278 8.59 55.7718 9.172 55.4598 9.724C55.1478 10.276 54.6918 10.684 54.0918 10.948C54.8238 11.164 55.3998 11.554 55.8198 12.118C56.2518 12.682 56.4678 13.378 56.4678 14.206ZM53.9658 13.738C53.9658 13.414 53.8998 13.126 53.7678 12.874C53.6358 12.61 53.4558 12.406 53.2278 12.262C53.0118 12.106 52.7598 12.028 52.4718 12.028H48.6558V15.394H52.3458C52.6458 15.394 52.9158 15.322 53.1558 15.178C53.4078 15.022 53.6058 14.818 53.7498 14.566C53.8938 14.314 53.9658 14.038 53.9658 13.738ZM48.6558 6.844V10.066H51.9678C52.2438 10.066 52.4958 10 52.7238 9.868C52.9518 9.736 53.1318 9.55 53.2638 9.31C53.4078 9.07 53.4798 8.782 53.4798 8.446C53.4798 8.122 53.4138 7.84 53.2818 7.6C53.1618 7.36 52.9938 7.174 52.7778 7.042C52.5738 6.91 52.3398 6.844 52.0758 6.844H48.6558Z" fill="#4D5AE5"></path>
<path d="M8.946 28.568C8.862 28.484 8.706 28.37 8.478 28.226C8.262 28.082 7.992 27.944 7.668 27.812C7.356 27.68 7.014 27.566 6.642 27.47C6.27 27.362 5.892 27.308 5.508 27.308C4.836 27.308 4.326 27.434 3.978 27.686C3.642 27.938 3.474 28.292 3.474 28.748C3.474 29.096 3.582 29.372 3.798 29.576C4.014 29.78 4.338 29.954 4.77 30.098C5.202 30.242 5.742 30.398 6.39 30.566C7.23 30.77 7.956 31.022 8.568 31.322C9.192 31.61 9.666 31.994 9.99 32.474C10.326 32.942 10.494 33.566 10.494 34.346C10.494 35.03 10.368 35.618 10.116 36.11C9.864 36.59 9.516 36.98 9.072 37.28C8.628 37.58 8.124 37.802 7.56 37.946C6.996 38.078 6.396 38.144 5.76 38.144C5.124 38.144 4.488 38.078 3.852 37.946C3.216 37.814 2.604 37.628 2.016 37.388C1.428 37.136 0.888 36.836 0.396 36.488L1.494 34.346C1.602 34.454 1.794 34.598 2.07 34.778C2.346 34.946 2.682 35.12 3.078 35.3C3.474 35.468 3.906 35.612 4.374 35.732C4.842 35.852 5.316 35.912 5.796 35.912C6.468 35.912 6.978 35.798 7.326 35.57C7.674 35.342 7.848 35.018 7.848 34.598C7.848 34.214 7.71 33.914 7.434 33.698C7.158 33.482 6.774 33.296 6.282 33.14C5.79 32.972 5.208 32.792 4.536 32.6C3.732 32.372 3.06 32.12 2.52 31.844C1.98 31.556 1.578 31.196 1.314 30.764C1.05 30.332 0.918 29.792 0.918 29.144C0.918 28.268 1.122 27.536 1.53 26.948C1.95 26.348 2.514 25.898 3.222 25.598C3.93 25.286 4.716 25.13 5.58 25.13C6.18 25.13 6.744 25.196 7.272 25.328C7.812 25.46 8.316 25.634 8.784 25.85C9.252 26.066 9.672 26.3 10.044 26.552L8.946 28.568ZM22.4691 27.398H18.3831V38H15.9171V27.398H11.8311V25.22H22.4691V27.398ZM30.0136 38.09C28.9936 38.09 28.1236 37.922 27.4036 37.586C26.6956 37.238 26.1196 36.764 25.6756 36.164C25.2436 35.564 24.9256 34.886 24.7216 34.13C24.5176 33.362 24.4156 32.564 24.4156 31.736V25.22H26.8996V31.736C26.8996 32.264 26.9476 32.78 27.0436 33.284C27.1516 33.776 27.3256 34.22 27.5656 34.616C27.8056 35.012 28.1236 35.324 28.5196 35.552C28.9156 35.78 29.4076 35.894 29.9956 35.894C30.5956 35.894 31.0936 35.78 31.4896 35.552C31.8976 35.312 32.2156 34.994 32.4436 34.598C32.6836 34.202 32.8576 33.758 32.9656 33.266C33.0736 32.762 33.1276 32.252 33.1276 31.736V25.22H35.5936V31.736C35.5936 32.612 35.4856 33.434 35.2696 34.202C35.0656 34.97 34.7356 35.648 34.2796 36.236C33.8356 36.812 33.2596 37.268 32.5516 37.604C31.8436 37.928 30.9976 38.09 30.0136 38.09ZM38.6356 38V25.22H43.2796C44.6716 25.22 45.8356 25.508 46.7716 26.084C47.7076 26.648 48.4096 27.416 48.8776 28.388C49.3456 29.348 49.5796 30.416 49.5796 31.592C49.5796 32.888 49.3216 34.016 48.8056 34.976C48.2896 35.936 47.5576 36.68 46.6096 37.208C45.6736 37.736 44.5636 38 43.2796 38H38.6356ZM47.0776 31.592C47.0776 30.764 46.9276 30.038 46.6276 29.414C46.3276 28.778 45.8956 28.286 45.3316 27.938C44.7676 27.578 44.0836 27.398 43.2796 27.398H41.1196V35.822H43.2796C44.0956 35.822 44.7856 35.642 45.3496 35.282C45.9136 34.91 46.3396 34.406 46.6276 33.77C46.9276 33.122 47.0776 32.396 47.0776 31.592ZM52.0604 38V25.22H54.5444V38H52.0604ZM63.2048 38.09C62.2688 38.09 61.4168 37.91 60.6488 37.55C59.8928 37.19 59.2388 36.704 58.6868 36.092C58.1468 35.468 57.7268 34.772 57.4268 34.004C57.1268 33.224 56.9768 32.426 56.9768 31.61C56.9768 30.758 57.1328 29.948 57.4448 29.18C57.7688 28.4 58.2068 27.71 58.7588 27.11C59.3228 26.498 59.9828 26.018 60.7388 25.67C61.5068 25.31 62.3468 25.13 63.2588 25.13C64.1828 25.13 65.0228 25.316 65.7788 25.688C66.5468 26.06 67.2008 26.558 67.7408 27.182C68.2808 27.806 68.7008 28.502 69.0008 29.27C69.3008 30.038 69.4508 30.83 69.4508 31.646C69.4508 32.486 69.2948 33.296 68.9828 34.076C68.6708 34.844 68.2328 35.534 67.6688 36.146C67.1168 36.746 66.4568 37.22 65.6888 37.568C64.9328 37.916 64.1048 38.09 63.2048 38.09ZM59.4968 31.61C59.4968 32.162 59.5808 32.696 59.7488 33.212C59.9168 33.728 60.1568 34.19 60.4688 34.598C60.7928 34.994 61.1828 35.312 61.6388 35.552C62.1068 35.78 62.6348 35.894 63.2228 35.894C63.8228 35.894 64.3568 35.774 64.8248 35.534C65.2928 35.282 65.6828 34.952 65.9948 34.544C66.3068 34.124 66.5408 33.662 66.6968 33.158C66.8648 32.642 66.9488 32.126 66.9488 31.61C66.9488 31.058 66.8588 30.53 66.6788 30.026C66.5108 29.51 66.2648 29.054 65.9408 28.658C65.6288 28.25 65.2388 27.932 64.7708 27.704C64.3148 27.464 63.7988 27.344 63.2228 27.344C62.6108 27.344 62.0708 27.47 61.6028 27.722C61.1468 27.962 60.7628 28.286 60.4508 28.694C60.1388 29.102 59.8988 29.558 59.7308 30.062C59.5748 30.566 59.4968 31.082 59.4968 31.61Z" fill="#2E2F42"></path>
</svg><style>@media (prefers-color-scheme: light) { :root { filter: none; } }
</style></svg>